<svg width="40" height="40" viewBox="0 0 40 40" fill="none" xmlns="http://www.w3.org/2000/svg">
<style> path { fill: #8A2E76; stroke: transparent; stroke-width: 3px; } @media (prefers-color-scheme: dark) { path { fill: #CB3BAC; stroke: #CB3BAC; } } </style>
<path d="M9.30575 35V5.90909H20.9535C23.0936 5.90909 24.8787 6.22633 26.3086 6.8608C27.7385 7.49527 28.8133 8.37595 29.533 9.50284C30.2527 10.6203 30.6126 11.9081 30.6126 13.3665C30.6126 14.5028 30.3853 15.5019 29.9308 16.3636C29.4762 17.2159 28.8512 17.9167 28.0558 18.4659C27.2698 19.0057 26.3701 19.3892 25.3569 19.6165V19.9006C26.4648 19.9479 27.5018 20.2604 28.4677 20.8381C29.4431 21.4157 30.2338 22.2254 30.8398 23.267C31.4459 24.2992 31.7489 25.5303 31.7489 26.9602C31.7489 28.5038 31.3654 29.8816 30.5984 31.0938C29.8408 32.2964 28.7186 33.2481 27.2319 33.9489C25.7451 34.6496 23.9128 35 21.7347 35H9.30575ZM15.4563 29.9716H20.4705C22.1845 29.9716 23.4345 29.6449 24.2205 28.9915C25.0065 28.3286 25.3995 27.4479 25.3995 26.3494C25.3995 25.5445 25.2054 24.8343 24.8171 24.2188C24.4289 23.6032 23.8749 23.1203 23.1552 22.7699C22.445 22.4195 21.5974 22.2443 20.6126 22.2443H15.4563V29.9716ZM15.4563 18.0824H20.016C20.8588 18.0824 21.6069 17.9356 22.2603 17.642C22.9232 17.339 23.444 16.9129 23.8228 16.3636C24.2111 15.8144 24.4052 15.1562 24.4052 14.3892C24.4052 13.3381 24.0311 12.4905 23.283 11.8466C22.5444 11.2027 21.4933 10.8807 20.1296 10.8807H15.4563V18.0824Z" fill="#8A2E76"/>
</svg>
